<?xml version="1.0" standalone="no"?><!DOCTYPE svg PUBLIC "-//W3C//DTD SVG 1.1//EN" "http://www.w3.org/Graphics/SVG/1.1/DTD/svg11.dtd"><svg t="1565313663873" class="icon" viewBox="0 0 1024 1024" version="1.1" xmlns="http://www.w3.org/2000/svg" p-id="3200" xmlns:xlink="http://www.w3.org/1999/xlink" width="128" height="128"><defs><style type="text/css">* { color: rgb(153, 153, 153) !important; text-shadow: rgb(0, 0, 0) 0px 0px 3px !important; box-shadow: none !important; background-color: transparent !important; border-color: rgb(68, 68, 68) !important; }
</style></defs><path d="M649.309091 121.018182A338.618182 338.618182 0 0 0 256 422.4a205.032727 205.032727 0 0 1 54.923636-2.327273A200.145455 200.145455 0 0 1 488.727273 624.174545a298.821818 298.821818 0 0 1-68.189091 172.218182 758.458182 758.458182 0 0 0 148.712727 105.425455 49.338182 49.338182 0 0 0 46.545455 0c72.843636-38.167273 291.84-171.752727 313.483636-406.807273A340.48 340.48 0 0 0 649.309091 121.018182zM592.523636 581.818182a121.949091 121.949091 0 1 1 121.949091-121.949091A122.181818 122.181818 0 0 1 592.523636 581.818182z" fill="#73B4FF" p-id="3201"></path><path d="M253.905455 455.214545a306.734545 306.734545 0 0 1 2.094545-32.814545 197.818182 197.818182 0 0 0-162.909091 194.56c0 139.636364 122.88 243.665455 175.010909 281.134545a38.865455 38.865455 0 0 0 46.545455 0 533.410909 533.410909 0 0 0 106.589091-101.701818c-84.247273-76.567273-167.330909-191.301818-167.330909-341.178182z" fill="#87D3FF" p-id="3202"></path><path d="M310.690909 420.072727a205.032727 205.032727 0 0 0-54.923636 2.327273 306.734545 306.734545 0 0 0-1.861818 32.814545c0 150.807273 83.083636 264.610909 166.865454 341.178182a298.821818 298.821818 0 0 0 67.956364-172.218182 200.145455 200.145455 0 0 0-178.036364-204.101818z" fill="#73B4FF" p-id="3203"></path><path d="M310.690909 420.072727a205.032727 205.032727 0 0 0-54.923636 2.327273 306.734545 306.734545 0 0 0-1.861818 32.814545c0 150.807273 83.083636 264.610909 166.865454 341.178182a298.821818 298.821818 0 0 0 67.956364-172.218182 200.145455 200.145455 0 0 0-178.036364-204.101818z" fill="#1474E4" p-id="3204"></path></svg>