<?xml version="1.0" standalone="no"?><!DOCTYPE svg PUBLIC "-//W3C//DTD SVG 1.1//EN" "http://www.w3.org/Graphics/SVG/1.1/DTD/svg11.dtd"><svg t="1565313763537" class="icon" viewBox="0 0 1024 1024" version="1.1" xmlns="http://www.w3.org/2000/svg" p-id="4946" xmlns:xlink="http://www.w3.org/1999/xlink" width="128" height="128"><defs><style type="text/css">* { color: rgb(153, 153, 153) !important; text-shadow: rgb(0, 0, 0) 0px 0px 3px !important; box-shadow: none !important; background-color: transparent !important; border-color: rgb(68, 68, 68) !important; }
</style></defs><path d="M788 929.2c-94.8 0-172-77.2-172-172s77.2-172 172-172 172 77.2 172 172-77.2 172-172 172z m0-280c-59.6 0-108 48.4-108 108s48.4 108 108 108 108-48.4 108-108-48.5-108-108-108zM788 403.2c-83.8 0-152-68.2-152-152s68.2-152 152-152 152 68.2 152 152-68.2 152-152 152z m0-240c-48.5 0-88 39.5-88 88s39.5 88 88 88 88-39.5 88-88-39.5-88-88-88zM270.3 719c-114.1 0-207-92.9-207-207s92.9-207 207-207 207 92.9 207 207-92.8 207-207 207z m0-350c-78.9 0-143 64.1-143 143s64.1 143 143 143 143-64.1 143-143-64.1-143-143-143z" fill="#333333" p-id="4947"></path><path d="M686.854 265.65l32 55.425-285.78 165-32-55.424zM426.144 625.744l32-55.424 199.18 115-32 55.424z" fill="#333333" p-id="4948"></path></svg>